<?xml version="1.0" encoding="UTF-8" standalone="no"?>
<svg
   id="a"
   width="1282.16"
   height="242.50999"
   viewBox="0 0 1282.1601 242.51"
   version="1.1"
   sodipodi:docname="yellowbrick.svg"
   inkscape:version="1.2.2 (b0a8486541, 2022-12-01)"
   xmlns:inkscape="http://www.inkscape.org/namespaces/inkscape"
   xmlns:sodipodi="http://sodipodi.sourceforge.net/DTD/sodipodi-0.dtd"
   xmlns="http://www.w3.org/2000/svg"
   xmlns:svg="http://www.w3.org/2000/svg">
  <sodipodi:namedview
     id="namedview970"
     pagecolor="#505050"
     bordercolor="#ffffff"
     borderopacity="1"
     inkscape:pageshadow="0"
     inkscape:pageopacity="0"
     inkscape:pagecheckerboard="1"
     showgrid="false"
     fit-margin-top="0"
     fit-margin-left="0"
     fit-margin-right="0"
     fit-margin-bottom="0"
     inkscape:zoom="1.2115105"
     inkscape:cx="647.53875"
     inkscape:cy="119.27259"
     inkscape:window-width="3700"
     inkscape:window-height="2348"
     inkscape:window-x="0"
     inkscape:window-y="0"
     inkscape:window-maximized="1"
     inkscape:current-layer="a"
     inkscape:showpageshadow="0"
     inkscape:deskcolor="#505050" />
  <defs
     id="defs933">
    <style
       id="style914">.c{fill:url(#b);}.d{fill:#ffdb2c;}.e{fill:#4b5357;}</style>
    <linearGradient
       id="b"
       x1="1079.9301"
       y1="248.53999"
       x2="1216.99"
       y2="11.14"
       gradientUnits="userSpaceOnUse">
      <stop
         offset="0"
         stop-color="#008fa9"
         id="stop916" />
      <stop
         offset=".11"
         stop-color="#2aa07f"
         id="stop918" />
      <stop
         offset=".24"
         stop-color="#56b254"
         id="stop920" />
      <stop
         offset=".3"
         stop-color="#68ba44"
         id="stop922" />
      <stop
         offset=".4"
         stop-color="#74bd3f"
         id="stop924" />
      <stop
         offset=".56"
         stop-color="#93c535"
         id="stop926" />
      <stop
         offset=".81"
         stop-color="#cad918"
         id="stop928" />
      <stop
         offset="1"
         stop-color="#f5ea03"
         id="stop930" />
    </linearGradient>
  </defs>
  <path
     class="e"
     d="M 47.01,202.96 V 146.6 L 0,67.46 H 20.06 L 55.73,127.4 91.3,67.46 h 20.06 l -46.91,79.13 v 56.36 H 47.01 Z"
     id="path935" />
  <path
     class="e"
     d="m 165.22,185.27 c -5.1,3.08 -11.11,4.61 -18.03,4.61 -10.27,0 -18.19,-3.3 -23.74,-9.88 -4.81,-5.69 -7.53,-13.42 -8.18,-23.14 h 80.28 c 0.51,-12.05 -1.09,-22.43 -4.8,-31.15 -3.72,-8.72 -9.27,-15.43 -16.67,-20.14 -7.4,-4.7 -16.36,-7.06 -26.89,-7.06 -10.53,0 -18.98,2.21 -26.51,6.63 -7.52,4.42 -13.39,10.7 -17.59,18.82 -4.2,8.12 -6.3,17.74 -6.3,28.84 0,11.1 2.13,19.87 6.4,27.81 4.27,7.94 10.23,14.11 17.88,18.54 7.66,4.42 16.62,6.63 26.89,6.63 10.27,0 19.3,-2.46 27.48,-7.38 8.17,-4.93 14.3,-11.87 18.37,-20.84 l -16.57,-5.55 c -2.91,5.77 -6.92,10.2 -12.02,13.27 z m -41.77,-61.72 c 5.55,-6.65 13.66,-9.98 24.33,-9.98 9.95,0 17.44,3.09 22.48,9.27 3.98,4.88 6.42,11.75 7.38,20.56 h -62.01 c 1.04,-8.24 3.64,-14.86 7.82,-19.85 z"
     id="path937" />
  <path
     class="e"
     d="M 213.19,202.96 V 64.64 h 17.25 v 138.32 z"
     id="path939" />
  <path
     class="e"
     d="M 258.52,202.96 V 64.64 h 17.25 v 138.32 z"
     id="path941" />
  <path
     class="e"
     d="m 343.6,205.78 c -10.4,0 -19.37,-2.29 -26.89,-6.87 -7.53,-4.58 -13.33,-10.9 -17.4,-18.96 -4.07,-8.06 -6.11,-17.36 -6.11,-27.9 0,-10.54 2.07,-19.93 6.2,-27.99 4.13,-8.06 9.98,-14.33 17.54,-18.82 7.56,-4.48 16.44,-6.73 26.65,-6.73 10.21,0 19.48,2.29 27.04,6.87 7.56,4.58 13.36,10.88 17.39,18.92 4.04,8.03 6.06,17.28 6.06,27.76 0,10.48 -2.04,19.93 -6.11,27.99 -4.07,8.06 -9.89,14.36 -17.44,18.91 -7.56,4.55 -16.54,6.82 -26.94,6.82 z m 0,-15.9 c 10.79,0 18.85,-3.51 24.18,-10.54 5.33,-7.03 7.99,-16.12 7.99,-27.29 0,-11.17 -2.68,-20.54 -8.04,-27.38 -5.36,-6.84 -13.41,-10.26 -24.13,-10.26 -7.3,0 -13.31,1.6 -18.03,4.8 -4.72,3.2 -8.24,7.62 -10.56,13.27 -2.33,5.64 -3.49,12.17 -3.49,19.57 0,11.42 2.72,20.58 8.14,27.48 5.43,6.9 13.41,10.35 23.94,10.35 z"
     id="path943" />
  <path
     class="e"
     d="m 428.02,202.96 -31.98,-101.72 17.15,0.09 23.36,74.33 23.55,-74.33 h 15.22 l 23.45,74.33 23.46,-74.33 h 17.06 l -31.98,101.62 h -14.35 l -25.29,-77.25 -25.3,77.25 h -14.34 z"
     id="path945" />
  <path
     class="e"
     d="m 642.27,124.67 c -3.75,-8.09 -9.13,-14.47 -16.14,-19.15 -7.01,-4.67 -15.36,-7.01 -25.05,-7.01 -9.69,0 -18.11,2.34 -24.86,7.01 -2.22,1.54 -4.19,3.32 -6.06,5.22 V 67.45 h -17.35 v 135.51 h 15.41 v -11.65 c 2.34,2.77 4.96,5.27 7.95,7.37 6.72,4.74 14.99,7.1 24.81,7.1 9.82,0 18.14,-2.35 25.15,-7.06 7.01,-4.71 12.39,-11.12 16.14,-19.24 3.75,-8.12 5.62,-17.27 5.62,-27.43 0,-10.16 -1.88,-19.29 -5.62,-27.38 z m -16.09,46.91 c -2.26,5.8 -5.67,10.4 -10.23,13.79 -4.55,3.39 -10.26,5.08 -17.1,5.08 -6.84,0 -12.83,-1.65 -17.35,-4.94 -4.52,-3.29 -7.87,-7.84 -10.03,-13.64 -2.17,-5.8 -3.25,-12.4 -3.25,-19.81 0,-7.41 1.1,-14.08 3.3,-19.85 2.2,-5.77 5.53,-10.27 9.98,-13.5 4.46,-3.23 10.08,-4.85 16.86,-4.85 6.78,0 12.95,1.69 17.54,5.08 4.59,3.39 8.01,7.97 10.27,13.74 2.26,5.77 3.39,12.23 3.39,19.38 0,7.15 -1.13,13.73 -3.39,19.52 z"
     id="path947" />
  <path
     class="e"
     d="m 707.39,100.73 c -3.55,0.22 -7.04,0.88 -10.46,1.98 -3.43,1.1 -6.5,2.71 -9.21,4.84 -2.46,1.69 -4.67,3.86 -6.64,6.5 -0.84,1.12 -1.57,2.31 -2.28,3.52 v -16.22 h -15.41 v 101.62 h 17.35 v -51 c 0,-4.01 0.36,-7.95 1.07,-11.81 0.71,-3.86 1.99,-7.43 3.83,-10.73 1.84,-3.29 4.44,-6.13 7.8,-8.52 3.68,-2.57 7.69,-4.07 12.02,-4.52 4.33,-0.44 8.3,-0.22 11.92,0.66 v -15.71 c -3.1,-0.63 -6.43,-0.83 -9.98,-0.61 z"
     id="path949" />
  <path
     class="e"
     d="M 731.91,83.36 V 66.05 h 17.25 v 17.31 z m 0,119.59 V 101.34 h 17.25 v 101.62 h -17.25 z"
     id="path951" />
  <path
     class="e"
     d="m 816.52,205.78 c -10.6,0 -19.59,-2.3 -26.99,-6.92 -7.4,-4.62 -13.05,-10.96 -16.96,-19.06 -3.91,-8.09 -5.9,-17.31 -5.96,-27.66 0.06,-10.54 2.1,-19.84 6.11,-27.9 4.01,-8.06 9.73,-14.36 17.16,-18.91 7.43,-4.55 16.38,-6.82 26.84,-6.82 11.05,0 20.56,2.63 28.54,7.9 7.98,5.27 13.32,12.48 16.04,21.64 l -17.06,4.99 c -2.26,-5.9 -5.86,-10.48 -10.81,-13.74 -4.94,-3.26 -10.58,-4.9 -16.91,-4.9 -7.17,0 -13.09,1.62 -17.74,4.85 -4.65,3.23 -8.11,7.68 -10.37,13.36 -2.26,5.68 -3.43,12.19 -3.49,19.52 0.13,11.29 2.83,20.4 8.1,27.33 5.26,6.93 13.1,10.4 23.5,10.4 6.85,0 12.52,-1.52 17.01,-4.57 4.49,-3.04 7.93,-7.45 10.32,-13.22 l 17.45,4.42 c -3.62,9.47 -9.27,16.72 -16.96,21.73 -7.69,5.02 -16.96,7.53 -27.81,7.53 z"
     id="path953" />
  <path
     class="e"
     d="m 875.25,202.96 0.1,-135.5 h 17.44 v 82.8 l 43.9,-48.93 h 22.39 l -46.23,50.81 51.66,50.81 h -24.13 l -47.59,-48.93 v 48.93 h -17.54 z"
     id="path955" />
  <g
     id="g967"
     transform="translate(-12.23,-25.26)">
    <path
       class="c"
       d="m 1065.51,91.77 v 21.26 c -9.24,-9.31 -14.95,-22.12 -14.95,-36.27 0,-28.44 23.06,-51.5 51.5,-51.5 28.44,0 51.5,23.06 51.5,51.5 0,2.25 -0.16,4.47 -0.44,6.64 h -79.81 c -4.29,0 -7.81,3.77 -7.81,8.37 z m 0,91.22 v -60.5 c -5.12,-1.71 -10.59,-2.64 -16.28,-2.64 -28.44,0 -51.5,23.06 -51.5,51.5 0,28.44 23.06,51.5 51.5,51.5 21.34,0 39.65,-12.98 47.46,-31.48 h -23.37 c -4.29,0 -7.81,-3.77 -7.81,-8.37 z m 129.39,8.37 h -93.36 c -1.71,5.52 -2.64,11.4 -2.64,17.48 0,32.55 26.39,58.93 58.93,58.93 32.54,0 58.94,-26.39 58.94,-58.93 0,-14.57 -5.3,-27.9 -14.07,-38.19 v 12.34 c 0,4.6 -3.51,8.37 -7.81,8.37 z m 31.19,-164.39 c -33.67,0 -61.62,24.37 -67.24,56.43 h 36.06 c 4.29,0 7.81,3.77 7.81,8.37 v 67.67 c 7.29,2.66 15.17,4.11 23.38,4.11 37.71,0 68.29,-30.57 68.29,-68.29 0,-37.72 -30.57,-68.29 -68.29,-68.29 z"
       id="path957"
       style="fill:url(#b)" />
    <path
       class="d"
       d="m 1102.06,128.25 c 26.19,0 47.8,-19.55 51.06,-44.86 h -79.81 c -4.29,0 -7.81,3.77 -7.81,8.37 v 21.26 c 9.33,9.4 22.26,15.23 36.55,15.23 z"
       id="path959" />
    <path
       class="d"
       d="m 1065.51,122.48 v 60.5 c 0,4.6 3.51,8.37 7.81,8.37 h 23.37 c 2.6,-6.15 4.04,-12.92 4.04,-20.02 0,-22.75 -14.76,-42.04 -35.22,-48.86 z"
       id="path961" />
    <path
       class="d"
       d="m 1157.84,149.91 c -26.46,0 -48.85,17.44 -56.3,41.45 h 93.36 c 4.29,0 7.81,-3.77 7.81,-8.37 v -12.34 c -10.81,-12.69 -26.89,-20.75 -44.87,-20.75 z"
       id="path963" />
    <path
       class="d"
       d="m 1194.9,83.4 h -36.06 c -0.67,3.85 -1.05,7.81 -1.05,11.86 0,29.5 18.71,54.63 44.91,64.18 V 91.77 c 0,-4.6 -3.51,-8.37 -7.81,-8.37 z"
       id="path965" />
  </g>
</svg>
